<?xml version="1.0" standalone="no"?>
<!DOCTYPE svg PUBLIC "-//W3C//DTD SVG 20010904//EN"
 "http://www.w3.org/TR/2001/REC-SVG-20010904/DTD/svg10.dtd">
<svg version="1.0" xmlns="http://www.w3.org/2000/svg"
 width="223.000000pt" height="45.000000pt" viewBox="0 0 223.000000 65.000000"
 preserveAspectRatio="xMidYMid meet">

<g transform="translate(0.000000,65.000000) scale(0.100000,-0.100000)"
fill="white" stroke="none">
<path d="M211 522 c-1 -7 -5 -10 -11 -7 -5 3 -10 -1 -10 -9 0 -9 -5 -15 -12
-13 -6 1 -25 -25 -42 -57 -74 -143 -14 -321 132 -393 73 -36 181 -39 253 -6
179 81 231 333 95 462 -36 35 -63 39 -29 5 10 -9 18 -20 18 -23 1 -3 12 -26
25 -51 35 -65 35 -166 -1 -235 -53 -103 -173 -161 -284 -136 -187 42 -265 263
-147 418 13 18 22 38 19 45 -4 10 -6 10 -6 0z"/>
<path d="M514 455 c-7 -18 3 -35 22 -35 20 0 30 30 13 41 -20 12 -29 11 -35
-6z"/>
<path d="M334 421 c-46 -28 -64 -59 -64 -109 0 -82 51 -132 135 -132 42 0 52
5 86 39 34 33 39 45 39 83 0 108 -108 173 -196 119z m128 -38 c9 -8 22 -28 29
-44 28 -69 -53 -145 -123 -116 -45 19 -63 43 -63 87 0 40 24 76 60 91 25 10
75 1 97 -18z"/>
<path d="M880 305 l0 -125 25 0 c23 0 25 4 25 45 0 44 1 45 31 45 46 0 109 21
109 37 0 7 5 13 10 13 16 0 12 60 -5 76 -21 22 -71 34 -137 34 l-58 0 0 -125z
m144 79 c9 -4 16 -18 16 -34 0 -32 -14 -40 -71 -40 -39 0 -39 0 -39 40 0 40 0
40 39 40 22 0 46 -3 55 -6z"/>
<path d="M1160 410 c0 -15 7 -20 25 -20 18 0 25 5 25 20 0 15 -7 20 -25 20
-18 0 -25 -5 -25 -20z"/>
<path d="M1520 410 c0 -15 7 -20 25 -20 18 0 25 5 25 20 0 15 -7 20 -25 20
-18 0 -25 -5 -25 -20z"/>
<path d="M1160 270 c0 -89 0 -90 25 -90 25 0 25 1 25 84 0 84 -5 96 -41 96 -5
0 -9 -40 -9 -90z"/>
<path d="M1260 352 c0 -4 9 -15 20 -25 11 -9 20 -24 20 -32 0 -8 5 -15 10 -15
19 0 9 -25 -20 -50 -35 -28 -39 -50 -10 -50 11 0 20 5 20 10 0 6 12 22 26 35
24 22 27 23 45 7 10 -9 19 -22 19 -28 0 -14 23 -24 53 -23 12 0 16 3 10 6 -7
2 -13 10 -13 17 0 7 -11 22 -25 32 -25 18 -34 54 -15 54 6 0 10 5 10 10 0 6
12 22 26 35 l27 25 -24 0 c-14 0 -36 -14 -54 -33 l-30 -34 -31 34 c-29 30 -64
44 -64 25z"/>
<path d="M1520 270 c0 -89 0 -90 25 -90 25 0 25 1 25 84 0 84 -5 96 -41 96 -5
0 -9 -40 -9 -90z"/>
<path d="M1667 348 c-16 -6 -30 -20 -33 -34 -9 -37 2 -115 17 -125 26 -16 95
-21 137 -9 49 13 56 30 12 30 -16 0 -30 -4 -30 -10 0 -5 -11 -10 -25 -10 -14
0 -25 5 -25 10 0 6 -6 10 -14 10 -16 0 -46 26 -46 41 0 5 38 9 85 9 l85 0 0
33 c0 25 -6 36 -29 50 -32 19 -91 21 -134 5z m116 -28 c29 -35 21 -41 -50 -38
-70 3 -85 14 -58 42 24 23 86 21 108 -4z"/>
</g>
</svg>
